<svg width="17" height="16" viewBox="0 0 17 16" fill="none" xmlns="http://www.w3.org/2000/svg">
<path d="M1.45 5.7H16.05V14C16.05 14.718 15.468 15.3 14.75 15.3H2.75C2.03203 15.3 1.45 14.718 1.45 14V5.7Z" stroke="#8E8E8E" stroke-width="1.4"/>
<rect x="4.44922" y="9.59998" width="1.8" height="1.8" rx="0.9" fill="#8E8E8E"/>
<rect x="7.84766" y="9.59998" width="1.8" height="1.8" rx="0.9" fill="#8E8E8E"/>
<rect x="11.25" y="9.59998" width="1.8" height="1.8" rx="0.9" fill="#8E8E8E"/>
<rect x="5.1" y="0.35" width="0.7" height="1.3" rx="0.35" stroke="#8E8E8E" stroke-width="0.7"/>
<rect x="11.7016" y="0.35" width="0.7" height="1.3" rx="0.35" stroke="#8E8E8E" stroke-width="0.7"/>
<mask id="path-7-inside-1_3549_30908" fill="white">
<path d="M0.75 3C0.75 1.89543 1.64543 1 2.75 1H14.75C15.8546 1 16.75 1.89543 16.75 3V6H0.75V3Z"/>
</mask>
<path d="M-0.65 3C-0.65 1.12223 0.872232 -0.4 2.75 -0.4H14.75C16.6278 -0.4 18.15 1.12223 18.15 3H15.35C15.35 2.66863 15.0814 2.4 14.75 2.4H2.75C2.41863 2.4 2.15 2.66863 2.15 3H-0.65ZM16.75 6H0.75H16.75ZM-0.65 6V3C-0.65 1.12223 0.872232 -0.4 2.75 -0.4V2.4C2.41863 2.4 2.15 2.66863 2.15 3V6H-0.65ZM14.75 -0.4C16.6278 -0.4 18.15 1.12223 18.15 3V6H15.35V3C15.35 2.66863 15.0814 2.4 14.75 2.4V-0.4Z" fill="#8E8E8E" mask="url(#path-7-inside-1_3549_30908)"/>
</svg>
