<svg width="24" height="24" viewBox="0 0 24 24" fill="none" xmlns="http://www.w3.org/2000/svg">
<path d="M7.94487 16.0161L9.52976 15.5589L19.0724 5.90248C19.1477 5.82535 19.1896 5.72171 19.1891 5.61395C19.1886 5.50618 19.1457 5.40294 19.0697 5.32652L18.4983 4.74875C18.4613 4.71081 18.4172 4.6806 18.3685 4.65989C18.3197 4.63918 18.2674 4.62838 18.2144 4.62813C18.1615 4.62788 18.109 4.63818 18.0601 4.65842C18.0111 4.67867 17.9667 4.70846 17.9295 4.74605L8.41197 14.3773L7.94487 16.0161ZM19.6295 3.60402L20.201 4.18268C20.9894 4.98094 20.9966 6.26876 20.2154 7.05892L10.3821 17.0105L6.99447 17.9861C6.89206 18.0149 6.78498 18.0232 6.67935 18.0106C6.57372 17.998 6.4716 17.9647 6.37883 17.9127C6.28607 17.8606 6.20446 17.7908 6.13868 17.7072C6.07291 17.6236 6.02424 17.5278 5.99547 17.4254C5.95133 17.2769 5.95071 17.1189 5.99367 16.97L6.97917 13.5142L16.7865 3.58872C16.9729 3.40095 17.1949 3.25219 17.4395 3.15112C17.6841 3.05005 17.9464 2.99869 18.211 3.00003C18.4757 3.00137 18.7374 3.05538 18.9809 3.15893C19.2245 3.26247 19.445 3.41437 19.6295 3.60402ZM9.26247 4.64166C9.70886 4.64166 10.0707 5.00794 10.0707 5.45971C10.0714 5.5665 10.051 5.67239 10.0108 5.77132C9.97054 5.87024 9.9112 5.96027 9.83614 6.03624C9.76108 6.11222 9.67177 6.17266 9.57334 6.2141C9.47491 6.25554 9.36927 6.27717 9.26247 6.27776H6.02967C5.13687 6.27776 4.41327 7.01032 4.41327 7.91297V17.7278C4.41327 18.6313 5.13687 19.3639 6.02967 19.3639H15.7281C16.6209 19.3639 17.3454 18.6313 17.3454 17.7278V14.4565C17.3454 14.0047 17.7072 13.6384 18.1536 13.6384C18.5999 13.6384 18.9618 14.0047 18.9618 14.4574V17.7278C18.9618 19.5349 17.5137 21 15.7281 21H6.02967C4.24407 21 2.79688 19.5349 2.79688 17.7278V7.91297C2.79688 6.10677 4.24407 4.64166 6.02967 4.64166H9.26247Z" fill="#8E8E8E"/>
</svg>
