<svg width="18" height="18" viewBox="0 0 18 18" fill="none" xmlns="http://www.w3.org/2000/svg">
<path d="M5.14799 13.0161L6.73289 12.5589L16.2756 2.90248C16.3508 2.82535 16.3928 2.72171 16.3922 2.61395C16.3917 2.50618 16.3489 2.40294 16.2729 2.32652L15.7014 1.74875C15.6644 1.71081 15.6203 1.6806 15.5716 1.65989C15.5229 1.63918 15.4705 1.62838 15.4175 1.62813C15.3646 1.62788 15.3121 1.63818 15.2632 1.65842C15.2143 1.67867 15.1699 1.70846 15.1326 1.74605L5.61509 11.3773L5.14799 13.0161ZM16.8327 0.604018L17.4042 1.18268C18.1926 1.98094 18.1998 3.26876 17.4186 4.05892L7.58519 14.0105L4.19759 14.9861C4.09518 15.0149 3.9881 15.0232 3.88247 15.0106C3.77684 14.998 3.67473 14.9647 3.58196 14.9127C3.48919 14.8606 3.40759 14.7908 3.34181 14.7072C3.27603 14.6236 3.22737 14.5278 3.19859 14.4254C3.15446 14.2769 3.15383 14.1189 3.1968 13.97L4.18229 10.5142L13.9896 0.588719C14.1761 0.400952 14.3981 0.252194 14.6427 0.151122C14.8872 0.0500492 15.1495 -0.00131474 15.4141 2.55701e-05C15.6788 0.00136588 15.9405 0.0553837 16.1841 0.158928C16.4276 0.262473 16.6481 0.414372 16.8327 0.604018ZM6.46559 1.64166C6.91199 1.64166 7.27379 2.00794 7.27379 2.45971C7.2745 2.5665 7.25415 2.67239 7.21391 2.77132C7.17367 2.87025 7.11432 2.96027 7.03926 3.03624C6.9642 3.11222 6.8749 3.17266 6.77646 3.2141C6.67803 3.25554 6.57239 3.27717 6.46559 3.27776H3.23279C2.34 3.27776 1.6164 4.01032 1.6164 4.91297V14.7278C1.6164 15.6313 2.34 16.3639 3.23279 16.3639H12.9312C13.824 16.3639 14.5485 15.6313 14.5485 14.7278V11.4565C14.5485 11.0047 14.9103 10.6384 15.3567 10.6384C15.8031 10.6384 16.1649 11.0047 16.1649 11.4574V14.7278C16.1649 16.5349 14.7168 18 12.9312 18H3.23279C1.4472 18 0 16.5349 0 14.7278V4.91297C0 3.10677 1.4472 1.64166 3.23279 1.64166H6.46559Z" fill="#1D1D1D"/>
</svg>
